<svg width="16" height="16" viewBox="0 0 16 16" fill="none" xmlns="http://www.w3.org/2000/svg">
<rect width="16" height="16" rx="8" fill="white"/>
<path d="M8.50939 5C8.31221 5 8.11502 5.03125 7.91784 5.0625C7.06338 5.28125 6.66901 6 6.66901 6V5.1875H4.5V6H5.58451V13H6.70188V10.1875C7.16197 10.5938 7.88498 10.8438 8.54225 10.8438C10.2512 10.8438 11.5 9.625 11.5 7.90625C11.4671 6.21875 10.2183 5 8.50939 5ZM8.50939 9.96875C7.35916 9.96875 6.66901 9.28125 6.66901 8.625V7.3125C6.66901 6.59375 7.5892 5.875 8.50939 5.875C9.52817 5.875 10.3498 6.78125 10.3498 7.9375C10.3498 9.0625 9.52817 9.96875 8.50939 9.96875Z" fill="#FF6503"/>
</svg>
