<svg width="16" height="23" viewBox="0 0 16 23" fill="none" xmlns="http://www.w3.org/2000/svg">
<path d="M6.38247 17.4157L6.38255 17.4162C6.43784 17.7286 6.35732 18.0455 6.16673 18.2954C5.97718 18.544 5.69669 18.7043 5.39205 18.752L5.39157 18.752C4.42203 18.9027 3.6818 19.1244 3.21962 19.3532L3.21151 19.3572L3.20326 19.3609C3.19353 19.3653 3.18388 19.3698 3.17429 19.3743C3.35383 19.4671 3.59806 19.5684 3.91446 19.6665L3.91536 19.6668C4.90672 19.9762 6.35083 20.1875 8 20.1875C9.64959 20.1875 11.0933 19.9774 12.0841 19.667L12.0845 19.6668C12.4017 19.5677 12.646 19.4666 12.8254 19.3741C12.8162 19.3697 12.8069 19.3654 12.7975 19.3612L12.7891 19.3575L12.7809 19.3534C12.3178 19.1248 11.5806 18.9035 10.6144 18.753C10.4621 18.7326 10.3143 18.6842 10.1795 18.6093C10.0424 18.5331 9.92072 18.4307 9.82299 18.3065C9.72519 18.1822 9.65357 18.0389 9.6141 17.8847C9.57461 17.7303 9.56852 17.5696 9.59637 17.4126C9.62421 17.2557 9.68509 17.1074 9.77382 16.9762C9.86248 16.8451 9.97681 16.7342 10.1086 16.6487C10.2403 16.5632 10.3873 16.5044 10.5407 16.4744C10.6914 16.445 10.8465 16.4438 10.9977 16.4707C12.1009 16.6418 13.108 16.9159 13.876 17.2951L13.8761 17.2952C14.2261 17.4682 14.62 17.7104 14.9321 18.0394C15.2492 18.3737 15.5 18.819 15.5 19.3749C15.5 20.1687 14.9837 20.7265 14.5365 21.0587L14.5351 21.0598C14.0671 21.4047 13.4633 21.6679 12.8253 21.8669C11.5356 22.2704 9.82945 22.5 8 22.5C6.17055 22.5 4.46441 22.2704 3.1747 21.8669C2.53669 21.6679 1.93286 21.4047 1.46494 21.0598L1.46346 21.0587C1.01629 20.7265 0.5 20.1687 0.5 19.3749C0.5 18.8195 0.750919 18.3743 1.0678 18.04C1.3798 17.7109 1.77364 17.4683 2.12388 17.2952L2.12401 17.2951C2.89338 16.9152 3.90274 16.6408 5.00837 16.4698L6.38247 17.4157ZM6.38247 17.4157C6.32703 17.1041 6.14357 16.8352 5.88514 16.662C5.62777 16.4895 5.3131 16.4225 5.00879 16.4697L6.38247 17.4157ZM2.8841 3.11804C2.24323 4.04831 1.90017 5.13562 1.9 6.24932L1.9 6.24959C1.89918 7.66043 2.44812 9.01607 3.43461 10.0654C4.32072 11.0079 5.50477 11.6443 6.8 11.8892V18.7187C6.8 19.0361 6.93481 19.3335 7.16305 19.5475C7.3902 19.7604 7.69178 19.8749 8 19.8749C8.30822 19.8749 8.6098 19.7604 8.83695 19.5475C9.0652 19.3335 9.2 19.0361 9.2 18.7187V11.8879C10.1941 11.7 11.1271 11.2806 11.9114 10.6628C12.8112 9.95422 13.4781 9.01366 13.827 7.95128C14.1761 6.88854 14.1907 5.75295 13.869 4.68235C13.5473 3.61212 12.9045 2.6564 12.0229 1.92737C11.1415 1.19858 10.0581 0.726348 8.90346 0.5634C7.74889 0.40046 6.568 0.553053 5.50146 1.00434C4.43476 1.4557 3.52474 2.1881 2.8841 3.11804Z" fill="#FF6503" stroke="white"/>
</svg>
